<svg width="34" height="34" viewBox="0 0 34 34" fill="none" xmlns="http://www.w3.org/2000/svg">
<path d="M23.5409 20.0746C23.4065 20.2089 23.2227 20.2938 23.0105 20.2938C22.6004 20.2938 22.261 19.9544 22.261 19.5442L22.261 11.7095L14.4263 11.7095C14.0161 11.7095 13.6767 11.3701 13.6767 10.96C13.6767 10.5498 14.0161 10.2104 14.4263 10.2104L23.0105 10.2104C23.4207 10.2104 23.7601 10.5498 23.7601 10.96L23.7601 19.5442C23.7601 19.7564 23.6752 19.9402 23.5409 20.0746Z" fill="#292D32"/>
<path d="M23.4206 11.6107L11.5199 23.5113C11.23 23.8012 10.7492 23.8012 10.4593 23.5113C10.1694 23.2214 10.1694 22.7405 10.4593 22.4506L22.3599 10.55C22.6498 10.2601 23.1306 10.2601 23.4206 10.55C23.7105 10.8399 23.7105 11.3208 23.4206 11.6107Z" fill="#292D32"/>
</svg>
