<svg width="24" height="25" viewBox="0 0 24 25" fill="none" xmlns="http://www.w3.org/2000/svg">
<path d="M18.0701 11.2904C17.8801 11.2904 17.6901 11.2204 17.5401 11.0704L12.0001 5.5304L6.46012 11.0704C6.17012 11.3604 5.69012 11.3604 5.40012 11.0704C5.11012 10.7804 5.11012 10.3004 5.40012 10.0104L11.4701 3.9404C11.7601 3.6504 12.2401 3.6504 12.5301 3.9404L18.6001 10.0104C18.8901 10.3004 18.8901 10.7804 18.6001 11.0704C18.4601 11.2204 18.2601 11.2904 18.0701 11.2904Z" fill="#292D32"/>
<path d="M12 22.2204C11.59 22.2204 11.25 21.8804 11.25 21.4704V4.64038C11.25 4.23038 11.59 3.89038 12 3.89038C12.41 3.89038 12.75 4.23038 12.75 4.64038V21.4704C12.75 21.8804 12.41 22.2204 12 22.2204Z" fill="#292D32"/>
</svg>
