<svg width="24" height="25" viewBox="0 0 24 25" fill="none" xmlns="http://www.w3.org/2000/svg">
<path d="M12.0001 22.2206C11.8101 22.2206 11.6201 22.1506 11.4701 22.0006L5.40012 15.9306C5.11012 15.6406 5.11012 15.1606 5.40012 14.8706C5.69012 14.5806 6.17012 14.5806 6.46012 14.8706L12.0001 20.4106L17.5401 14.8706C17.8301 14.5806 18.3101 14.5806 18.6001 14.8706C18.8901 15.1606 18.8901 15.6406 18.6001 15.9306L12.5301 22.0006C12.3801 22.1506 12.1901 22.2206 12.0001 22.2206Z" fill="#292D32"/>
<path d="M12 22.0505C11.59 22.0505 11.25 21.7105 11.25 21.3005V4.47046C11.25 4.06046 11.59 3.72046 12 3.72046C12.41 3.72046 12.75 4.06046 12.75 4.47046V21.3005C12.75 21.7105 12.41 22.0505 12 22.0505Z" fill="#292D32"/>
</svg>
