<svg width="24" height="24" viewBox="0 0 24 24" fill="none" xmlns="http://www.w3.org/2000/svg">
<g clip-path="url(#clip0_732_417)">
<path d="M7.77833 13.4348C5.8257 11.4822 5.82571 8.31638 7.77833 6.36376L12.021 2.12112C13.9736 0.168501 17.1394 0.168501 19.092 2.12112C21.0447 4.07374 21.0447 7.23957 19.092 9.19219L18.7385 9.54574C18.348 9.93627 17.7148 9.93627 17.3243 9.54574C16.9337 9.15522 16.9337 8.52205 17.3243 8.13153L17.6778 7.77798C18.8494 6.6064 18.8494 4.70691 17.6778 3.53534C16.5062 2.36376 14.6068 2.36376 13.4352 3.53534L9.19254 7.77798C8.02097 8.94955 8.02097 10.849 9.19254 12.0206C9.82602 12.6541 10.6708 12.9453 11.5021 12.8934C12.0533 12.8591 12.528 13.2781 12.5624 13.8293C12.5967 14.3805 12.1777 14.8552 11.6265 14.8896C10.2469 14.9756 8.83439 14.4909 7.77833 13.4348ZM4.24279 21.213C2.29017 19.2604 2.29017 16.0946 4.24279 14.1419L4.59635 13.7884C4.98687 13.3979 5.62003 13.3979 6.01056 13.7884C6.40108 14.1789 6.40108 14.8121 6.01056 15.2026L5.65701 15.5562C4.48543 16.7277 4.48543 18.6272 5.65701 19.7988C6.82858 20.9704 8.72807 20.9704 9.89965 19.7988L14.1423 15.5562C15.3139 14.3846 15.3139 12.4851 14.1423 11.3135C13.6399 10.8112 13.0064 10.5251 12.3518 10.453C11.8029 10.3925 11.4068 9.89851 11.4673 9.34955C11.5277 8.80058 12.0217 8.40455 12.5707 8.465C13.661 8.58504 14.7211 9.06388 15.5565 9.8993C17.5091 11.8519 17.5091 15.0177 15.5565 16.9704L11.3139 21.213C9.36124 23.1656 6.19541 23.1656 4.24279 21.213Z" fill="black"/>
</g>
<defs>
<clipPath id="clip0_732_417">
<rect width="24" height="24" fill="white"/>
</clipPath>
</defs>
</svg>
