<svg width="23" height="20" viewBox="0 0 23 20" fill="none" xmlns="http://www.w3.org/2000/svg">
<path d="M9 2C5.13401 2 2 5.13401 2 9C2 11.002 2.83911 12.8063 4.18762 14.0834C4.58862 14.4632 4.60583 15.0961 4.22607 15.4971C3.84631 15.8981 3.21338 15.9153 2.81238 15.5356C1.08166 13.8965 0 11.5737 0 9C0 4.02944 4.02944 0 9 0C12.9197 0 16.2521 2.5049 17.4876 6.00002L17.5 6C20.5376 6 23 8.46243 23 11.5C23 13.8963 21.4681 15.9322 19.3332 16.6868C18.8125 16.8708 18.2412 16.5979 18.0572 16.0772C17.8731 15.5565 18.146 14.9851 18.6668 14.8011C20.0275 14.3201 21 13.0224 21 11.5C21 9.567 19.433 8 17.5 8C17.3678 8 17.2376 8.00729 17.1099 8.02141C16.9915 8.03449 16.8758 8.02636 16.7663 8.00006C16.3135 8.00875 15.8973 7.70694 15.7795 7.24926C15.0024 4.2299 12.2603 2 9 2ZM8.70711 12.2929C8.31658 11.9024 7.68342 11.9024 7.29289 12.2929C6.90237 12.6834 6.90237 13.3166 7.29289 13.7071L9.58579 16L7.29289 18.2929C6.90237 18.6834 6.90237 19.3166 7.29289 19.7071C7.68342 20.0976 8.31658 20.0976 8.70711 19.7071L11 17.4142L13.2929 19.7071C13.6834 20.0976 14.3166 20.0976 14.7071 19.7071C15.0976 19.3166 15.0976 18.6834 14.7071 18.2929L12.4142 16L14.7071 13.7071C15.0976 13.3166 15.0976 12.6834 14.7071 12.2929C14.3166 11.9024 13.6834 11.9024 13.2929 12.2929L11 14.5858L8.70711 12.2929Z" fill="black"/>
</svg>
