<svg width="18" height="24" viewBox="0 0 18 24" fill="none" xmlns="http://www.w3.org/2000/svg">
<path d="M10 12C10 11.4477 9.55228 11 9 11C8.44772 11 8 11.4477 8 12V14H6C5.44772 14 5 14.4477 5 15C5 15.5523 5.44772 16 6 16H8V18C8 18.5523 8.44772 19 9 19C9.55228 19 10 18.5523 10 18V16H12C12.5523 16 13 15.5523 13 15C13 14.4477 12.5523 14 12 14H10V12Z" fill="black"/>
<path d="M0 3C0 1.34315 1.34315 0 3 0H10.5C10.7652 0 11.0196 0.105357 11.2071 0.292893L17.7071 6.79289C17.8946 6.98043 18 7.23478 18 7.5V21C18 22.6569 16.6569 24 15 24H3C1.34315 24 0 22.6569 0 21V3ZM3 2C2.44772 2 2 2.44772 2 3V21C2 21.5523 2.44772 22 3 22H15C15.5523 22 16 21.5523 16 21V8.5H10.5C9.94771 8.5 9.5 8.05228 9.5 7.5V2H3ZM11.5 3.41418V6.49997H14.5858L11.5 3.41418Z" fill="black"/>
</svg>
