<svg width="137" height="107" viewBox="0 0 137 107" fill="none" xmlns="http://www.w3.org/2000/svg">
<path opacity="0.5" d="M61.1565 -24.3889C63.3336 -31.6852 73.6664 -31.6852 75.8435 -24.3889L87.4243 14.4234C88.1632 16.8997 90.1003 18.8368 92.5766 19.5757L131.389 31.1565C138.685 33.3336 138.685 43.6664 131.389 45.8435L92.5766 57.4243C90.1003 58.1632 88.1632 60.1003 87.4243 62.5766L75.8435 101.389C73.6664 108.685 63.3336 108.685 61.1565 101.389L49.5757 62.5766C48.8368 60.1003 46.8997 58.1632 44.4234 57.4243L5.6111 45.8435C-1.68523 43.6664 -1.68524 33.3336 5.6111 31.1565L44.4234 19.5757C46.8997 18.8368 48.8368 16.8997 49.5757 14.4234L61.1565 -24.3889Z" fill="white"/>
</svg>
