<svg width="58" height="61" viewBox="0 0 58 61" fill="none" xmlns="http://www.w3.org/2000/svg">
<path d="M23.7002 28.2269V19.3816H32.0648V28.2269H23.7002Z" fill="white"/>
<path d="M14.8724 1.07788H6.50781V10.154H14.8724V1.07788Z" fill="#80C6F0"/>
<path d="M32.2201 1H23.8555V10.0761H32.2201V1Z" fill="#80C6F0"/>
<path d="M40.5848 1H32.2202V10.0761H40.5848V1Z" fill="#80C6F0"/>
<path d="M40.5848 27.999H32.2202V37.0751H40.5848V27.999Z" fill="#A7B5B3"/>
<path d="M14.8724 28.3035H6.50781V37.3796H14.8724V28.3035Z" fill="#A7B5B3"/>
<path d="M32.2201 28.0735H23.8555V37.1496H32.2201V28.0735Z" fill="#80C6F0"/>
<path d="M49.5682 10.0742H41.2036V19.1503H49.5682V10.0742Z" fill="#A7B5B3"/>
<path d="M40.5848 10.0742H32.2202V19.1503H40.5848V10.0742Z" fill="white"/>
<path d="M23.2333 1H14.8687V10.0761H23.2333V1Z" fill="white"/>
<path d="M14.7943 19.2295H6.42969V28.3056H14.7943V19.2295Z" fill="white"/>
<path d="M49.5713 27.9964V19.6895H31.9126V27.9964H49.5713Z" fill="#80C6F0"/>
<path d="M6.35205 19.3032V9.99634H32.0655V19.3032H23.546V37.1477H14.8716V19.3032H6.35205Z" fill="url(#paint0_linear_2001_1440)"/>
<path d="M49.5682 1.15234H41.2036V10.2284H49.5682V1.15234Z" fill="#BCDE84"/>
<path d="M49.8759 27.999H41.5112V37.0751H49.8759V27.999Z" fill="#BCDE84"/>
<path d="M6.42969 10.0746V1.15234H14.9492M6.42969 10.0746H14.9492M6.42969 10.0746V19.2276M49.5695 10.0746V1.15234H40.895M49.5695 10.0746V19.2276M49.5695 10.0746H32.1432M14.9492 1.15234V10.0746M14.9492 1.15234H23.6236M14.9492 10.0746H23.6236M23.6236 1.15234V10.0746M23.6236 1.15234H32.1432M23.6236 10.0746H32.1432M40.895 1.15234V19.2276M40.895 1.15234H32.1432M40.895 19.2276H49.5695M40.895 19.2276H32.1432M49.5695 19.2276V28.1499M32.1432 19.2276V10.0746M32.1432 19.2276H23.6236V28.1499M32.1432 19.2276V28.1499M32.1432 10.0746V1.15234M6.42969 19.2276H15.0267V28.1499M6.42969 19.2276V28.1499M23.6236 37.0722V28.1499M23.6236 37.0722H32.1432M23.6236 37.0722H15.0267M23.6236 28.1499H32.1432M49.5695 28.1499V37.0722H40.8563M49.5695 28.1499H40.8563M32.1432 28.1499V37.0722M32.1432 28.1499H40.8563M32.1432 37.0722H40.8563M40.8563 28.1499V37.0722M15.0267 37.0722H6.42969V28.1499M15.0267 37.0722V28.1499M15.0267 28.1499H6.42969" stroke="#143747" stroke-width="1.549"/>
<rect x="9.29492" y="4.23096" width="2.63331" height="2.61515" fill="#143747"/>
<rect x="18.0479" y="4.23096" width="2.63331" height="2.61515" fill="#143747"/>
<rect x="26.7202" y="4.23096" width="2.63331" height="2.61515" fill="#143747"/>
<rect x="35.396" y="4.23096" width="2.63331" height="2.61515" fill="#143747"/>
<rect x="44.0684" y="4.23096" width="2.63331" height="2.61515" fill="#143747"/>
<rect x="44.0684" y="13.3052" width="2.63331" height="2.61515" fill="#143747"/>
<rect x="35.396" y="13.3052" width="2.63331" height="2.61515" fill="#143747"/>
<rect x="26.7202" y="13.3052" width="2.63331" height="2.61515" fill="#143747"/>
<rect x="18.0479" y="13.3052" width="2.63331" height="2.61515" fill="#143747"/>
<rect x="9.29492" y="13.3052" width="2.63331" height="2.61515" fill="#143747"/>
<rect x="9.29492" y="22.3794" width="2.63331" height="2.61515" fill="#143747"/>
<rect x="9.29492" y="31.3044" width="2.63331" height="2.61515" fill="#143747"/>
<rect x="18.0479" y="22.3794" width="2.63331" height="2.61515" fill="#143747"/>
<rect x="18.0479" y="31.3044" width="2.63331" height="2.61515" fill="#143747"/>
<rect x="26.7202" y="31.3044" width="2.63331" height="2.61515" fill="#143747"/>
<rect x="35.0815" y="31.3044" width="2.63331" height="2.61515" fill="#143747"/>
<rect x="43.9907" y="31.3044" width="2.63331" height="2.61515" fill="#143747"/>
<rect x="44.0684" y="22.3794" width="2.63331" height="2.61515" fill="#143747"/>
<rect x="35.396" y="22.3794" width="2.63331" height="2.61515" fill="#143747"/>
<rect x="26.7202" y="22.3794" width="2.63331" height="2.61515" fill="#143747"/>
<path d="M23.7002 28.2269V19.3816H32.0648V28.2269H23.7002Z" fill="white"/>
<path d="M14.8724 1.07788H6.50781V10.154H14.8724V1.07788Z" fill="#80C6F0"/>
<path d="M32.2201 1H23.8555V10.0761H32.2201V1Z" fill="#80C6F0"/>
<path d="M40.5848 1H32.2202V10.0761H40.5848V1Z" fill="#80C6F0"/>
<path d="M40.5848 27.999H32.2202V37.0751H40.5848V27.999Z" fill="#A7B5B3"/>
<path d="M14.8724 28.3035H6.50781V37.3796H14.8724V28.3035Z" fill="#A7B5B3"/>
<path d="M32.2201 28.0735H23.8555V37.1496H32.2201V28.0735Z" fill="#80C6F0"/>
<path d="M49.5682 10.0742H41.2036V19.1503H49.5682V10.0742Z" fill="#A7B5B3"/>
<path d="M40.5848 10.0742H32.2202V19.1503H40.5848V10.0742Z" fill="white"/>
<path d="M23.2333 1H14.8687V10.0761H23.2333V1Z" fill="white"/>
<path d="M14.7943 19.2295H6.42969V28.3056H14.7943V19.2295Z" fill="white"/>
<path d="M49.5713 27.9964V19.6895H31.9126V27.9964H49.5713Z" fill="#80C6F0"/>
<path d="M6.35205 19.3032V9.99634H32.0655V19.3032H23.546V37.1477H14.8716V19.3032H6.35205Z" fill="url(#paint1_linear_2001_1440)"/>
<path d="M49.5682 1.15234H41.2036V10.2284H49.5682V1.15234Z" fill="#BCDE84"/>
<path d="M49.8759 27.999H41.5112V37.0751H49.8759V27.999Z" fill="#BCDE84"/>
<path d="M6.42969 10.0746V1.15234H14.9492M6.42969 10.0746H14.9492M6.42969 10.0746V19.2276M49.5695 10.0746V1.15234H40.895M49.5695 10.0746V19.2276M49.5695 10.0746H32.1432M14.9492 1.15234V10.0746M14.9492 1.15234H23.6236M14.9492 10.0746H23.6236M23.6236 1.15234V10.0746M23.6236 1.15234H32.1432M23.6236 10.0746H32.1432M40.895 1.15234V19.2276M40.895 1.15234H32.1432M40.895 19.2276H49.5695M40.895 19.2276H32.1432M49.5695 19.2276V28.1499M32.1432 19.2276V10.0746M32.1432 19.2276H23.6236V28.1499M32.1432 19.2276V28.1499M32.1432 10.0746V1.15234M6.42969 19.2276H15.0267V28.1499M6.42969 19.2276V28.1499M23.6236 37.0722V28.1499M23.6236 37.0722H32.1432M23.6236 37.0722H15.0267M23.6236 28.1499H32.1432M49.5695 28.1499V37.0722H40.8563M49.5695 28.1499H40.8563M32.1432 28.1499V37.0722M32.1432 28.1499H40.8563M32.1432 37.0722H40.8563M40.8563 28.1499V37.0722M15.0267 37.0722H6.42969V28.1499M15.0267 37.0722V28.1499M15.0267 28.1499H6.42969" stroke="#143747" stroke-width="1.549"/>
<rect x="9.29492" y="4.23096" width="2.63331" height="2.61515" fill="#143747"/>
<rect x="18.0479" y="4.23096" width="2.63331" height="2.61515" fill="#143747"/>
<rect x="26.7202" y="4.23096" width="2.63331" height="2.61515" fill="#143747"/>
<rect x="35.396" y="4.23096" width="2.63331" height="2.61515" fill="#143747"/>
<rect x="44.0684" y="4.23096" width="2.63331" height="2.61515" fill="#143747"/>
<rect x="44.0684" y="13.3052" width="2.63331" height="2.61515" fill="#143747"/>
<rect x="35.396" y="13.3052" width="2.63331" height="2.61515" fill="#143747"/>
<rect x="26.7202" y="13.3052" width="2.63331" height="2.61515" fill="#143747"/>
<rect x="18.0479" y="13.3052" width="2.63331" height="2.61515" fill="#143747"/>
<rect x="9.29492" y="13.3052" width="2.63331" height="2.61515" fill="#143747"/>
<rect x="9.29492" y="22.3794" width="2.63331" height="2.61515" fill="#143747"/>
<rect x="9.29492" y="31.3044" width="2.63331" height="2.61515" fill="#143747"/>
<rect x="18.0479" y="22.3794" width="2.63331" height="2.61515" fill="#143747"/>
<rect x="18.0479" y="31.3044" width="2.63331" height="2.61515" fill="#143747"/>
<rect x="26.7202" y="31.3044" width="2.63331" height="2.61515" fill="#143747"/>
<rect x="35.0815" y="31.3044" width="2.63331" height="2.61515" fill="#143747"/>
<rect x="43.9907" y="31.3044" width="2.63331" height="2.61515" fill="#143747"/>
<rect x="44.0684" y="22.3794" width="2.63331" height="2.61515" fill="#143747"/>
<rect x="35.396" y="22.3794" width="2.63331" height="2.61515" fill="#143747"/>
<rect x="26.7202" y="22.3794" width="2.63331" height="2.61515" fill="#143747"/>
<path d="M8.12113 44.9466V43.6159H14.2707V44.9466H11.952V52.689H10.4398V44.9466H8.12113ZM13.8249 48.7573V47.5476H16.9501V48.7573H13.8249ZM20.5639 53.0015L16.9447 43.6159H18.4871L20.2816 48.2734C20.3555 48.4549 20.4227 48.6397 20.4832 48.8279C20.5437 49.0093 20.6075 49.2311 20.6748 49.4932C20.7487 49.2311 20.8192 49.0093 20.8865 48.8279C20.9537 48.6397 21.0209 48.4549 21.0881 48.2734L22.9934 43.3134L24.8988 48.2734C24.966 48.4481 25.0366 48.6296 25.1105 48.8178C25.1844 48.9992 25.255 49.2244 25.3222 49.4932C25.3961 49.2244 25.4633 48.9992 25.5238 48.8178C25.591 48.6296 25.6582 48.4481 25.7254 48.2734L27.4997 43.6159H28.9615L25.3524 53.0015L23.3664 47.8197C23.2992 47.645 23.232 47.4669 23.1648 47.2854C23.0976 47.0973 23.0304 46.8688 22.9632 46.5999C22.8893 46.8688 22.8187 47.0939 22.7515 47.2754C22.6843 47.4568 22.6171 47.6383 22.5499 47.8197L20.5639 53.0015ZM28.2898 52.689L32.2114 43.3034H32.2316L36.1532 52.689H34.6309L33.7639 50.5417H30.6287L29.7516 52.689H28.2898ZM31.1227 49.3319H33.2599L32.7155 47.971C32.6147 47.7357 32.5206 47.5039 32.4332 47.2754C32.3526 47.0469 32.2719 46.778 32.1913 46.4689C32.1106 46.778 32.03 47.0469 31.9493 47.2754C31.8687 47.4971 31.7779 47.729 31.6771 47.971L31.1227 49.3319ZM39.2179 52.9914L35.4878 43.6159H37.0504L38.8549 48.2129C38.9356 48.4011 39.0095 48.5859 39.0767 48.7674C39.1439 48.9421 39.2111 49.1437 39.2783 49.3722C39.3388 49.1505 39.4027 48.9522 39.4699 48.7775C39.5371 48.6027 39.6077 48.4145 39.6816 48.2129L41.4861 43.6159H42.9681L39.238 52.9914H39.2179ZM44.1715 52.689V43.6159H48.829V44.9164H45.6232V46.5798H48.1233V47.85H45.6232V51.3582H48.829V52.689H44.1715Z" fill="black"/>
<path d="M1.95758 59.4442C1.71873 59.4442 1.49342 59.3998 1.28166 59.3112C1.07236 59.2201 0.887682 59.0957 0.727628 58.9382C0.570037 58.7806 0.445688 58.5971 0.35458 58.3878C0.265935 58.1785 0.221613 57.9544 0.221613 57.7156C0.221613 57.4767 0.265935 57.2527 0.35458 57.0434C0.445688 56.8341 0.570037 56.6506 0.727628 56.493C0.887682 56.3354 1.07236 56.2123 1.28166 56.1237C1.49342 56.0326 1.71873 55.987 1.95758 55.987C2.19397 55.987 2.41558 56.0313 2.62242 56.12C2.82926 56.2062 3.01147 56.3256 3.16906 56.4783L3.04717 56.988C2.93391 56.8057 2.78124 56.6605 2.58917 56.5521C2.39957 56.4413 2.18904 56.3859 1.95758 56.3859C1.7138 56.3859 1.49342 56.4462 1.29643 56.5669C1.10191 56.6851 0.946779 56.8451 0.831048 57.0471C0.715316 57.2465 0.657451 57.4694 0.657451 57.7156C0.657451 57.9594 0.715316 58.1822 0.831048 58.3841C0.946779 58.586 1.10191 58.7473 1.29643 58.868C1.49342 58.9862 1.7138 59.0453 1.95758 59.0453C2.1915 59.0453 2.40327 58.9899 2.59287 58.8791C2.78247 58.7683 2.93391 58.623 3.04717 58.4432L3.16906 58.9529C3.01147 59.1031 2.82926 59.2226 2.62242 59.3112C2.41558 59.3998 2.19397 59.4442 1.95758 59.4442ZM3.78958 59.3777V56.0535H4.21064V59.0009H5.36303V59.3777H3.78958ZM6.00744 59.3777V56.0535H7.64737V56.4302H6.4285V57.1394H7.38882V57.5161H6.4285V59.0009H7.64737V59.3777H6.00744ZM7.93547 59.3777L9.34271 55.9427H9.35009L10.7573 59.3777H10.3104L9.9189 58.3915H8.75543L8.36022 59.3777H7.93547ZM8.89579 58.0406H9.77854L9.5163 57.3832C9.48429 57.2995 9.45351 57.217 9.42396 57.1357C9.39442 57.0544 9.36487 56.9572 9.33532 56.8439C9.30577 56.9572 9.27745 57.0544 9.25037 57.1357C9.22328 57.2145 9.1925 57.297 9.15803 57.3832L8.89579 58.0406ZM14.0156 59.4885L11.6887 56.9953V59.3777H11.2898V55.9427L13.6167 58.4358V56.0535H14.0156V59.4885ZM14.5918 57.8929V57.5383H15.6999V57.8929H14.5918ZM16.8835 59.422C16.6865 59.422 16.508 59.3826 16.348 59.3038C16.1904 59.225 16.0648 59.129 15.9712 59.0157L16.0931 58.506C16.1621 58.6439 16.2655 58.7683 16.4034 58.8791C16.5413 58.9899 16.7062 59.0453 16.8983 59.0453C17.0731 59.0453 17.2172 58.9899 17.3305 58.8791C17.4462 58.7683 17.5041 58.6316 17.5041 58.4691C17.5041 58.3509 17.4757 58.2536 17.4191 58.1773C17.3625 58.101 17.2984 58.0406 17.227 57.9963C17.1556 57.952 17.099 57.92 17.0571 57.9003L16.6508 57.6934C16.5868 57.659 16.5068 57.6109 16.4108 57.5494C16.3172 57.4878 16.2347 57.4029 16.1633 57.2945C16.0919 57.1862 16.0562 57.0458 16.0562 56.8735C16.0562 56.706 16.0944 56.557 16.1707 56.4265C16.2495 56.296 16.3578 56.1939 16.4957 56.12C16.6361 56.0461 16.7961 56.0092 16.9759 56.0092C17.1532 56.0092 17.3095 56.0412 17.445 56.1052C17.5804 56.1668 17.6863 56.2308 17.7626 56.2973L17.6407 56.807C17.5792 56.7036 17.488 56.6063 17.3674 56.5152C17.2467 56.4241 17.1101 56.3785 16.9574 56.3785C16.8097 56.3785 16.6915 56.4228 16.6028 56.5115C16.5142 56.5977 16.4699 56.7048 16.4699 56.8328C16.4699 56.9313 16.492 57.0126 16.5363 57.0766C16.5831 57.1406 16.6348 57.1911 16.6915 57.228C16.7506 57.265 16.7986 57.2933 16.8355 57.313L17.2492 57.5198C17.2984 57.5445 17.36 57.5789 17.4339 57.6233C17.5102 57.6676 17.5853 57.7267 17.6592 57.8005C17.7331 57.872 17.7946 57.9606 17.8439 58.0665C17.8931 58.1699 17.9177 58.2955 17.9177 58.4432C17.9177 58.6328 17.8722 58.8015 17.7811 58.9492C17.6924 59.097 17.5705 59.2127 17.4154 59.2964C17.2603 59.3801 17.083 59.422 16.8835 59.422ZM18.2058 56.4302V56.0535H20.3998V56.4302H19.5133V59.3777H19.0923V56.4302H18.2058ZM20.2038 59.3777L21.611 55.9427H21.6184L23.0257 59.3777H22.5788L22.1872 58.3915H21.0238L20.6286 59.3777H20.2038ZM21.1641 58.0406H22.0469L21.7846 57.3832C21.7526 57.2995 21.7219 57.217 21.6923 57.1357C21.6628 57.0544 21.6332 56.9572 21.6037 56.8439C21.5741 56.9572 21.5458 57.0544 21.5187 57.1357C21.4916 57.2145 21.4608 57.297 21.4264 57.3832L21.1641 58.0406ZM23.5581 59.3777V56.0535H25.1981V56.4302H23.9792V57.1394H25.0872V57.5161H23.9792V59.3777H23.5581ZM25.776 59.3777V56.0535H27.4159V56.4302H26.197V57.1394H27.3051V57.5161H26.197V59.3777H25.776ZM29.3439 60.0425V55.8319H29.6985V60.0425H29.3439ZM31.9777 59.3777V56.0535H32.8013C33.0205 56.0535 33.2052 56.0867 33.3554 56.1532C33.508 56.2197 33.6311 56.3071 33.7247 56.4155C33.8183 56.5213 33.886 56.6371 33.9279 56.7627C33.9722 56.8882 33.9943 57.0114 33.9943 57.132C33.9943 57.2502 33.9734 57.3721 33.9316 57.4977C33.8897 57.6233 33.822 57.7402 33.7284 57.8486C33.6348 57.9569 33.5117 58.0443 33.3591 58.1108C33.2064 58.1773 33.0205 58.2105 32.8013 58.2105H32.3987V59.3777H31.9777ZM32.3987 57.8338H32.7792C32.9786 57.8338 33.1362 57.7993 33.2519 57.7304C33.3677 57.659 33.4502 57.5703 33.4994 57.4644C33.5487 57.3561 33.5733 57.2453 33.5733 57.132C33.5733 57.0237 33.5487 56.9153 33.4994 56.807C33.4526 56.6986 33.3714 56.6088 33.2556 56.5373C33.1424 56.4659 32.9835 56.4302 32.7792 56.4302H32.3987V57.8338ZM34.6481 59.3777V56.0535H35.4828C35.6921 56.0535 35.8719 56.0954 36.0221 56.1791C36.1723 56.2628 36.288 56.3736 36.3693 56.5115C36.453 56.6469 36.4949 56.7959 36.4949 56.9584C36.4949 57.1406 36.4432 57.3044 36.3397 57.4497C36.2363 57.5949 36.0947 57.702 35.915 57.771L37.0304 59.3777H36.5392L35.4828 57.8486H35.0692V59.3777H34.6481ZM35.0692 57.494H35.4828C35.6257 57.494 35.7414 57.4681 35.83 57.4164C35.9211 57.3622 35.9876 57.2945 36.0295 57.2133C36.0738 57.1295 36.096 57.0446 36.096 56.9584C36.096 56.8033 36.0393 56.6765 35.9261 56.578C35.8153 56.4795 35.6675 56.4302 35.4828 56.4302H35.0692V57.494ZM38.9028 59.4442C38.664 59.4442 38.4387 59.3998 38.2269 59.3112C38.0176 59.2201 37.8329 59.0957 37.6729 58.9382C37.5153 58.7806 37.3909 58.5971 37.2998 58.3878C37.2112 58.1785 37.1669 57.9544 37.1669 57.7156C37.1669 57.4767 37.2112 57.2527 37.2998 57.0434C37.3909 56.8341 37.5153 56.6506 37.6729 56.493C37.8329 56.3354 38.0176 56.2123 38.2269 56.1237C38.4387 56.0326 38.664 55.987 38.9028 55.987C39.1441 55.987 39.3695 56.0326 39.5788 56.1237C39.7881 56.2123 39.9715 56.3354 40.1291 56.493C40.2891 56.6506 40.4135 56.8341 40.5021 57.0434C40.5932 57.2527 40.6388 57.4767 40.6388 57.7156C40.6388 57.9544 40.5932 58.1785 40.5021 58.3878C40.4135 58.5971 40.2891 58.7806 40.1291 58.9382C39.9715 59.0957 39.7881 59.2201 39.5788 59.3112C39.3695 59.3998 39.1441 59.4442 38.9028 59.4442ZM38.9028 59.0453C39.1466 59.0453 39.367 58.9862 39.564 58.868C39.761 58.7473 39.9161 58.586 40.0294 58.3841C40.1451 58.1822 40.203 57.9594 40.203 57.7156C40.203 57.4694 40.1451 57.2465 40.0294 57.0471C39.9161 56.8451 39.761 56.6851 39.564 56.5669C39.367 56.4462 39.1466 56.3859 38.9028 56.3859C38.6591 56.3859 38.4387 56.4462 38.2417 56.5669C38.0472 56.6851 37.892 56.8451 37.7763 57.0471C37.6606 57.2465 37.6027 57.4694 37.6027 57.7156C37.6027 57.9594 37.6606 58.1822 37.7763 58.3841C37.892 58.586 38.0472 58.7473 38.2417 58.868C38.4387 58.9862 38.6591 59.0453 38.9028 59.0453ZM43.1498 59.422C42.9528 59.422 42.7743 59.3826 42.6143 59.3038C42.4567 59.225 42.3311 59.129 42.2375 59.0157L42.3594 58.506C42.4284 58.6439 42.5318 58.7683 42.6697 58.8791C42.8076 58.9899 42.9725 59.0453 43.1646 59.0453C43.3394 59.0453 43.4835 58.9899 43.5968 58.8791C43.7125 58.7683 43.7703 58.6316 43.7703 58.4691C43.7703 58.3509 43.742 58.2536 43.6854 58.1773C43.6288 58.101 43.5647 58.0406 43.4933 57.9963C43.4219 57.952 43.3653 57.92 43.3234 57.9003L42.9171 57.6934C42.8531 57.659 42.7731 57.6109 42.6771 57.5494C42.5835 57.4878 42.501 57.4029 42.4296 57.2945C42.3582 57.1862 42.3225 57.0458 42.3225 56.8735C42.3225 56.706 42.3606 56.557 42.437 56.4265C42.5158 56.296 42.6241 56.1939 42.762 56.12C42.9024 56.0461 43.0624 56.0092 43.2422 56.0092C43.4195 56.0092 43.5758 56.0412 43.7113 56.1052C43.8467 56.1668 43.9526 56.2308 44.0289 56.2973L43.907 56.807C43.8455 56.7036 43.7543 56.6063 43.6337 56.5152C43.513 56.4241 43.3764 56.3785 43.2237 56.3785C43.076 56.3785 42.9578 56.4228 42.8691 56.5115C42.7805 56.5977 42.7362 56.7048 42.7362 56.8328C42.7362 56.9313 42.7583 57.0126 42.8026 57.0766C42.8494 57.1406 42.9011 57.1911 42.9578 57.228C43.0169 57.265 43.0649 57.2933 43.1018 57.313L43.5155 57.5198C43.5647 57.5445 43.6263 57.5789 43.7002 57.6233C43.7765 57.6676 43.8516 57.7267 43.9255 57.8005C43.9993 57.872 44.0609 57.9606 44.1102 58.0665C44.1594 58.1699 44.184 58.2955 44.184 58.4432C44.184 58.6328 44.1385 58.8015 44.0474 58.9492C43.9587 59.097 43.8368 59.2127 43.6817 59.2964C43.5266 59.3801 43.3493 59.422 43.1498 59.422ZM44.8693 59.3777V55.9427L46.4132 58.0702L47.9275 55.9427V59.3777H47.5065V57.8412C47.5065 57.7402 47.5077 57.6306 47.5102 57.5124C47.5126 57.3918 47.5213 57.2551 47.536 57.1025C47.4597 57.2379 47.3846 57.3573 47.3107 57.4607C47.2393 57.5617 47.1741 57.6553 47.115 57.7414L46.3984 58.7572L45.6597 57.7414C45.5982 57.6553 45.5317 57.5617 45.4603 57.4607C45.3913 57.3573 45.3174 57.2379 45.2386 57.1025C45.2534 57.2551 45.262 57.3918 45.2645 57.5124C45.267 57.6306 45.2682 57.7402 45.2682 57.8412V59.3777H44.8693ZM48.4594 59.3777L49.8667 55.9427H49.874L51.2813 59.3777H50.8344L50.4429 58.3915H49.2794L48.8842 59.3777H48.4594ZM49.4197 58.0406H50.3025L50.0403 57.3832C50.0082 57.2995 49.9775 57.217 49.9479 57.1357C49.9184 57.0544 49.8888 56.9572 49.8593 56.8439C49.8297 56.9572 49.8014 57.0544 49.7743 57.1357C49.7472 57.2145 49.7165 57.297 49.682 57.3832L49.4197 58.0406ZM51.8248 59.3777V56.0535H52.6596C52.8689 56.0535 53.0486 56.0954 53.1988 56.1791C53.349 56.2628 53.4647 56.3736 53.546 56.5115C53.6297 56.6469 53.6716 56.7959 53.6716 56.9584C53.6716 57.1406 53.6199 57.3044 53.5165 57.4497C53.413 57.5949 53.2715 57.702 53.0917 57.771L54.2072 59.3777H53.7159L52.6596 57.8486H52.2459V59.3777H51.8248ZM52.2459 57.494H52.6596C52.8024 57.494 52.9181 57.4681 53.0067 57.4164C53.0979 57.3622 53.1643 57.2945 53.2062 57.2133C53.2505 57.1295 53.2727 57.0446 53.2727 56.9584C53.2727 56.8033 53.216 56.6765 53.1028 56.578C52.992 56.4795 52.8442 56.4302 52.6596 56.4302H52.2459V57.494ZM54.1486 56.4302V56.0535H56.3426V56.4302H55.4561V59.3777H55.0351V56.4302H54.1486Z" fill="black"/>
<defs>
<linearGradient id="paint0_linear_2001_1440" x1="19.2088" y1="13.3037" x2="19.2088" y2="35.3786" gradientUnits="userSpaceOnUse">
<stop stop-color="#A7B5B3"/>
<stop offset="0.336538" stop-color="#BCDE84"/>
<stop offset="0.649038" stop-color="#BCDE84"/>
<stop offset="0.9999" stop-color="#A8B6B2"/>
</linearGradient>
<linearGradient id="paint1_linear_2001_1440" x1="19.2088" y1="13.3037" x2="19.2088" y2="35.3786" gradientUnits="userSpaceOnUse">
<stop stop-color="#A7B5B3"/>
<stop offset="0.336538" stop-color="#BCDE84"/>
<stop offset="0.649038" stop-color="#BCDE84"/>
<stop offset="0.9999" stop-color="#A8B6B2"/>
</linearGradient>
</defs>
</svg>
